<?xml version="1.0" encoding="UTF-8" standalone="no"?>
<!-- Created with Inkscape (http://www.inkscape.org/) -->
<svg
   xmlns:dc="http://purl.org/dc/elements/1.1/"
   xmlns:cc="http://creativecommons.org/ns#"
   xmlns:rdf="http://www.w3.org/1999/02/22-rdf-syntax-ns#"
   xmlns:svg="http://www.w3.org/2000/svg"
   xmlns="http://www.w3.org/2000/svg"
   xmlns:sodipodi="http://sodipodi.sourceforge.net/DTD/sodipodi-0.dtd"
   xmlns:inkscape="http://www.inkscape.org/namespaces/inkscape"
   id="svg7632"
   sodipodi:version="0.32"
   inkscape:version="0.46"
   width="512.4221"
   height="310"
   xml:space="preserve"
   sodipodi:docname="syn.svg"
   inkscape:output_extension="org.inkscape.output.svg.inkscape"><metadata
     id="metadata7637"><rdf:RDF><cc:Work
         rdf:about=""><dc:format>image/svg+xml</dc:format><dc:type
           rdf:resource="http://purl.org/dc/dcmitype/StillImage" /></cc:Work></rdf:RDF></metadata><defs
     id="defs7635"><inkscape:perspective
       sodipodi:type="inkscape:persp3d"
       inkscape:vp_x="0 : 526.18109 : 1"
       inkscape:vp_y="0 : 1000 : 0"
       inkscape:vp_z="744.09448 : 526.18109 : 1"
       inkscape:persp3d-origin="372.04724 : 350.78739 : 1"
       id="perspective7639" /></defs><sodipodi:namedview
     inkscape:window-height="669"
     inkscape:window-width="640"
     inkscape:pageshadow="2"
     inkscape:pageopacity="0.0"
     guidetolerance="10.0"
     gridtolerance="10.0"
     objecttolerance="10.0"
     borderopacity="1.0"
     bordercolor="#666666"
     pagecolor="#ffffff"
     id="base"
     showgrid="false"
     inkscape:zoom="1.0616247"
     inkscape:cx="256.21106"
     inkscape:cy="155"
     inkscape:window-x="1795"
     inkscape:window-y="115"
     inkscape:current-layer="g7641" /><g
     id="g7641"
     inkscape:groupmode="layer"
     inkscape:label="synflood"
     transform="matrix(1.25,0,0,-1.25,0,310)"><g
       id="g7643"><g
         id="g7645"
         transform="matrix(0.946299,0,0,-1,0,248)"><path
           d="M 63.066,168.109 L 96.977,168.109 L 96.977,195.836 L 63.066,195.836 L 63.066,168.109 z"
           style="fill:#ffffff;fill-opacity:1;fill-rule:nonzero;stroke:#000000;stroke-opacity:1;stroke-width:0.330906;stroke-linecap:butt;stroke-linejoin:miter;stroke-miterlimit:4;stroke-dasharray:none"
           id="path7647" /></g><g
         id="g7649"
         transform="matrix(0.946299,0,0,-1,0,248)"><path
           d="M 67.388,172.676 L 92.779,172.676 L 92.779,191.27 L 67.388,191.27 L 67.388,172.676 z"
           style="fill:#ffffff;fill-opacity:1;fill-rule:nonzero;stroke:#000000;stroke-opacity:1;stroke-width:0.814693;stroke-linecap:butt;stroke-linejoin:miter;stroke-miterlimit:4;stroke-dasharray:none"
           id="path7651" /></g><g
         id="g7653"
         transform="matrix(1,0,0,-1,0,248)"><path
           d="M 66.086,196.199 L 85.363,196.199 L 85.363,200.211 L 66.086,200.211 L 66.086,196.199 z"
           style="fill:#ffffff;fill-opacity:1;fill-rule:nonzero;stroke:#000000;stroke-opacity:1;stroke-width:0.612498;stroke-linecap:butt;stroke-linejoin:miter;stroke-miterlimit:4;stroke-dasharray:none"
           id="path7655" /></g><g
         id="g7657"
         transform="matrix(1,0,0,-1,0,248)"><path
           d="M 57.301,200.516 L 94.148,200.516 L 94.148,212.258 L 57.301,212.258 L 57.301,200.516 z"
           style="fill:#ffffff;fill-opacity:1;fill-rule:nonzero;stroke:#000000;stroke-opacity:1;stroke-width:0.336684;stroke-linecap:butt;stroke-linejoin:miter;stroke-miterlimit:4;stroke-dasharray:none"
           id="path7659" /></g><g
         id="g7661"
         transform="matrix(1,0,0,-1,0,248)"><path
           d="M 60.227,203.059 L 76.02,203.059 L 76.02,209.855 L 60.227,209.855 L 60.227,203.059 z"
           style="fill:#ffffff;fill-opacity:1;fill-rule:nonzero;stroke:#000000;stroke-opacity:1;stroke-width:0.336684;stroke-linecap:butt;stroke-linejoin:miter;stroke-miterlimit:4;stroke-dasharray:none"
           id="path7663" /></g><g
         id="g7665"
         transform="matrix(1,0,0,-1,0,248)"><path
           d="M 61.563,203.156 L 61.563,209.758"
           style="fill:none;stroke:#000000;stroke-opacity:1;stroke-width:0.340722;stroke-linecap:butt;stroke-linejoin:miter;stroke-miterlimit:4;stroke-dasharray:none"
           id="path7667" /></g><g
         id="g7669"
         transform="matrix(1,0,0,-1,0,248)"><path
           d="M 62.863,203.129 L 62.863,209.785"
           style="fill:none;stroke:#000000;stroke-opacity:1;stroke-width:0.342057;stroke-linecap:butt;stroke-linejoin:miter;stroke-miterlimit:4;stroke-dasharray:none"
           id="path7671" /></g><g
         id="g7673"
         transform="matrix(1,0,0,-1,0,248)"><path
           d="M 65.465,203.234 L 65.465,209.68"
           style="fill:none;stroke:#000000;stroke-opacity:1;stroke-width:0.336684;stroke-linecap:butt;stroke-linejoin:miter;stroke-miterlimit:4;stroke-dasharray:none"
           id="path7675" /></g><g
         id="g7677"
         transform="matrix(1,0,0,-1,0,248)"><path
           d="M 64.168,203.129 L 64.168,209.785"
           style="fill:none;stroke:#000000;stroke-opacity:1;stroke-width:0.342057;stroke-linecap:butt;stroke-linejoin:miter;stroke-miterlimit:4;stroke-dasharray:none"
           id="path7679" /></g><g
         id="g7681"
         transform="matrix(1,0,0,-1,0,248)"><path
           d="M 68.07,203.105 L 68.07,209.809"
           style="fill:none;stroke:#000000;stroke-opacity:1;stroke-width:0.343387;stroke-linecap:butt;stroke-linejoin:miter;stroke-miterlimit:4;stroke-dasharray:none"
           id="path7683" /></g><g
         id="g7685"
         transform="matrix(1,0,0,-1,0,248)"><path
           d="M 66.766,203.105 L 66.766,209.809"
           style="fill:none;stroke:#000000;stroke-opacity:1;stroke-width:0.343387;stroke-linecap:butt;stroke-linejoin:miter;stroke-miterlimit:4;stroke-dasharray:none"
           id="path7687" /></g><g
         id="g7689"
         transform="matrix(1,0,0,-1,0,248)"><path
           d="M 70.68,203.105 L 70.68,209.809"
           style="fill:none;stroke:#000000;stroke-opacity:1;stroke-width:0.343387;stroke-linecap:butt;stroke-linejoin:miter;stroke-miterlimit:4;stroke-dasharray:none"
           id="path7691" /></g><g
         id="g7693"
         transform="matrix(1,0,0,-1,0,248)"><path
           d="M 69.375,203.105 L 69.375,209.809"
           style="fill:none;stroke:#000000;stroke-opacity:1;stroke-width:0.343387;stroke-linecap:butt;stroke-linejoin:miter;stroke-miterlimit:4;stroke-dasharray:none"
           id="path7695" /></g><g
         id="g7697"
         transform="matrix(1,0,0,-1,0,248)"><path
           d="M 73.285,203.105 L 73.285,209.809"
           style="fill:none;stroke:#000000;stroke-opacity:1;stroke-width:0.343387;stroke-linecap:butt;stroke-linejoin:miter;stroke-miterlimit:4;stroke-dasharray:none"
           id="path7699" /></g><g
         id="g7701"
         transform="matrix(1,0,0,-1,0,248)"><path
           d="M 71.98,203.105 L 71.98,209.809"
           style="fill:none;stroke:#000000;stroke-opacity:1;stroke-width:0.343387;stroke-linecap:butt;stroke-linejoin:miter;stroke-miterlimit:4;stroke-dasharray:none"
           id="path7703" /></g><g
         id="g7705"
         transform="matrix(1,0,0,-1,0,248)"><path
           d="M 74.59,203.105 L 74.59,209.809"
           style="fill:none;stroke:#000000;stroke-opacity:1;stroke-width:0.343387;stroke-linecap:butt;stroke-linejoin:miter;stroke-miterlimit:4;stroke-dasharray:none"
           id="path7707" /></g><g
         id="g7709"
         transform="matrix(1,0,0,-1,0,248)"><path
           d="M 57.324,212.098 L 54.066,217.285 L 97.129,217.285 L 94.027,212.152"
           style="fill:none;stroke:#000000;stroke-opacity:1;stroke-width:0.336684;stroke-linecap:butt;stroke-linejoin:miter;stroke-miterlimit:4;stroke-dasharray:none"
           id="path7711" /></g><g
         id="g7713"
         transform="matrix(1,0,0,-1,0,248)"><path
           d="M 56.363,213.574 C 53.563,213.66 49.309,211.16 51.094,209.184 C 53.113,207.145 55.523,207.004 57.27,206.012"
           style="fill:none;stroke:#000000;stroke-opacity:1;stroke-width:0.336684;stroke-linecap:butt;stroke-linejoin:miter;stroke-miterlimit:4;stroke-dasharray:none"
           id="path7715" /></g><g
         id="g7717"
         transform="matrix(1,0,0,-1,0,248)"><path
           d="M 80.172,203.137 L 90.926,203.137 L 90.926,205.105 L 80.172,205.105 L 80.172,203.137 z"
           style="fill:#ffffff;fill-opacity:1;fill-rule:nonzero;stroke:#000000;stroke-opacity:1;stroke-width:0.336684;stroke-linecap:round;stroke-linejoin:miter;stroke-miterlimit:4;stroke-dasharray:none"
           id="path7719" /></g><g
         id="g7721"
         transform="matrix(0.946299,0,0,-1,0,248)"><path
           d="M 95.087,204.121 C 95.087,204.328 94.88,204.496 94.624,204.496 C 94.368,204.496 94.158,204.328 94.158,204.121 C 94.158,203.914 94.368,203.746 94.624,203.746 C 94.88,203.746 95.087,203.914 95.087,204.121 z"
           style="fill:#ffffff;fill-opacity:1;fill-rule:nonzero;stroke:#000000;stroke-opacity:1;stroke-width:0.346106;stroke-linecap:round;stroke-linejoin:miter;stroke-miterlimit:4;stroke-dasharray:none"
           id="path7723" /></g><g
         id="g7725"
         transform="matrix(1,0,0,-1,0,248)"><path
           d="M 372.344,94.609 L 404.602,94.609 L 404.602,147.055 L 372.344,147.055 L 372.344,94.609 z"
           style="fill:#ffffff;fill-opacity:1;fill-rule:nonzero;stroke:#000000;stroke-opacity:1;stroke-width:0.336684;stroke-linecap:round;stroke-linejoin:miter;stroke-miterlimit:4;stroke-dasharray:none"
           id="path7727" /></g><g
         id="g7729"
         transform="matrix(1,0,0,-1,0,248)"><path
           d="M 367.172,146.617 L 409.77,146.617 L 409.77,152.297 L 367.172,152.297 L 367.172,146.617 z"
           style="fill:#ffffff;fill-opacity:1;fill-rule:nonzero;stroke:#000000;stroke-opacity:1;stroke-width:0.336684;stroke-linecap:round;stroke-linejoin:miter;stroke-miterlimit:4;stroke-dasharray:none"
           id="path7731" /></g><g
         id="g7733"
         transform="matrix(1,0,0,-1,0,248)"><path
           d="M 372.344,116.789 L 404.602,116.789 L 404.602,117.227 L 372.344,117.227 L 372.344,116.789 z"
           style="fill:#ffffff;fill-opacity:1;fill-rule:nonzero;stroke:#000000;stroke-opacity:1;stroke-width:0.336684;stroke-linecap:round;stroke-linejoin:miter;stroke-miterlimit:4;stroke-dasharray:none"
           id="path7735" /></g><g
         id="g7737"
         transform="matrix(1,0,0,-1,0,248)"><path
           d="M 377.098,98.543 L 399.844,98.543 L 399.844,101.168 L 377.098,101.168 L 377.098,98.543 z"
           style="fill:#ececec;fill-opacity:1;fill-rule:nonzero;stroke:#000000;stroke-opacity:1;stroke-width:0.336684;stroke-linecap:round;stroke-linejoin:miter;stroke-miterlimit:4;stroke-dasharray:none"
           id="path7739" /></g><g
         id="g7741"
         transform="matrix(1,0,0,-1,0,248)"><path
           d="M 377.098,110.344 L 399.844,110.344 L 399.844,112.965 L 377.098,112.965 L 377.098,110.344 z"
           style="fill:#ececec;fill-opacity:1;fill-rule:nonzero;stroke:#000000;stroke-opacity:1;stroke-width:0.336684;stroke-linecap:round;stroke-linejoin:miter;stroke-miterlimit:4;stroke-dasharray:none"
           id="path7743" /></g><g
         id="g7745"
         transform="matrix(1,0,0,-1,0,248)"><path
           d="M 377.098,104.445 L 399.844,104.445 L 399.844,107.066 L 377.098,107.066 L 377.098,104.445 z"
           style="fill:#ececec;fill-opacity:1;fill-rule:nonzero;stroke:#000000;stroke-opacity:1;stroke-width:0.336684;stroke-linecap:round;stroke-linejoin:miter;stroke-miterlimit:4;stroke-dasharray:none"
           id="path7747" /></g><g
         id="g7749"
         transform="matrix(0.946299,0,0,-1,0,248)"><path
           d="M 63.066,10.016 L 96.977,10.016 L 96.977,37.742 L 63.066,37.742 L 63.066,10.016 z"
           style="fill:#ffffff;fill-opacity:1;fill-rule:nonzero;stroke:#000000;stroke-opacity:1;stroke-width:0.330906;stroke-linecap:butt;stroke-linejoin:miter;stroke-miterlimit:4;stroke-dasharray:none"
           id="path7751" /></g><g
         id="g7753"
         transform="matrix(0.946299,0,0,-1,0,248)"><path
           d="M 67.388,14.582 L 92.779,14.582 L 92.779,33.176 L 67.388,33.176 L 67.388,14.582 z"
           style="fill:#ffffff;fill-opacity:1;fill-rule:nonzero;stroke:#000000;stroke-opacity:1;stroke-width:0.814693;stroke-linecap:butt;stroke-linejoin:miter;stroke-miterlimit:4;stroke-dasharray:none"
           id="path7755" /></g><g
         id="g7757"
         transform="matrix(1,0,0,-1,0,248)"><path
           d="M 66.086,38.105 L 85.363,38.105 L 85.363,42.117 L 66.086,42.117 L 66.086,38.105 z"
           style="fill:#ffffff;fill-opacity:1;fill-rule:nonzero;stroke:#000000;stroke-opacity:1;stroke-width:0.612498;stroke-linecap:butt;stroke-linejoin:miter;stroke-miterlimit:4;stroke-dasharray:none"
           id="path7759" /></g><g
         id="g7761"
         transform="matrix(1,0,0,-1,0,248)"><path
           d="M 57.301,42.422 L 94.148,42.422 L 94.148,54.164 L 57.301,54.164 L 57.301,42.422 z"
           style="fill:#ffffff;fill-opacity:1;fill-rule:nonzero;stroke:#000000;stroke-opacity:1;stroke-width:0.336684;stroke-linecap:butt;stroke-linejoin:miter;stroke-miterlimit:4;stroke-dasharray:none"
           id="path7763" /></g><g
         id="g7765"
         transform="matrix(1,0,0,-1,0,248)"><path
           d="M 60.227,44.965 L 76.02,44.965 L 76.02,51.762 L 60.227,51.762 L 60.227,44.965 z"
           style="fill:#ffffff;fill-opacity:1;fill-rule:nonzero;stroke:#000000;stroke-opacity:1;stroke-width:0.336684;stroke-linecap:butt;stroke-linejoin:miter;stroke-miterlimit:4;stroke-dasharray:none"
           id="path7767" /></g><g
         id="g7769"
         transform="matrix(1,0,0,-1,0,248)"><path
           d="M 61.563,45.063 L 61.563,51.664"
           style="fill:none;stroke:#000000;stroke-opacity:1;stroke-width:0.340722;stroke-linecap:butt;stroke-linejoin:miter;stroke-miterlimit:4;stroke-dasharray:none"
           id="path7771" /></g><g
         id="g7773"
         transform="matrix(1,0,0,-1,0,248)"><path
           d="M 62.863,45.039 L 62.863,51.691"
           style="fill:none;stroke:#000000;stroke-opacity:1;stroke-width:0.342057;stroke-linecap:butt;stroke-linejoin:miter;stroke-miterlimit:4;stroke-dasharray:none"
           id="path7775" /></g><g
         id="g7777"
         transform="matrix(1,0,0,-1,0,248)"><path
           d="M 65.465,45.141 L 65.465,51.586"
           style="fill:none;stroke:#000000;stroke-opacity:1;stroke-width:0.336684;stroke-linecap:butt;stroke-linejoin:miter;stroke-miterlimit:4;stroke-dasharray:none"
           id="path7779" /></g><g
         id="g7781"
         transform="matrix(1,0,0,-1,0,248)"><path
           d="M 64.168,45.039 L 64.168,51.691"
           style="fill:none;stroke:#000000;stroke-opacity:1;stroke-width:0.342057;stroke-linecap:butt;stroke-linejoin:miter;stroke-miterlimit:4;stroke-dasharray:none"
           id="path7783" /></g><g
         id="g7785"
         transform="matrix(1,0,0,-1,0,248)"><path
           d="M 68.07,45.012 L 68.07,51.715"
           style="fill:none;stroke:#000000;stroke-opacity:1;stroke-width:0.343387;stroke-linecap:butt;stroke-linejoin:miter;stroke-miterlimit:4;stroke-dasharray:none"
           id="path7787" /></g><g
         id="g7789"
         transform="matrix(1,0,0,-1,0,248)"><path
           d="M 66.766,45.012 L 66.766,51.715"
           style="fill:none;stroke:#000000;stroke-opacity:1;stroke-width:0.343387;stroke-linecap:butt;stroke-linejoin:miter;stroke-miterlimit:4;stroke-dasharray:none"
           id="path7791" /></g><g
         id="g7793"
         transform="matrix(1,0,0,-1,0,248)"><path
           d="M 70.68,45.012 L 70.68,51.715"
           style="fill:none;stroke:#000000;stroke-opacity:1;stroke-width:0.343387;stroke-linecap:butt;stroke-linejoin:miter;stroke-miterlimit:4;stroke-dasharray:none"
           id="path7795" /></g><g
         id="g7797"
         transform="matrix(1,0,0,-1,0,248)"><path
           d="M 69.375,45.012 L 69.375,51.715"
           style="fill:none;stroke:#000000;stroke-opacity:1;stroke-width:0.343387;stroke-linecap:butt;stroke-linejoin:miter;stroke-miterlimit:4;stroke-dasharray:none"
           id="path7799" /></g><g
         id="g7801"
         transform="matrix(1,0,0,-1,0,248)"><path
           d="M 73.285,45.012 L 73.285,51.715"
           style="fill:none;stroke:#000000;stroke-opacity:1;stroke-width:0.343387;stroke-linecap:butt;stroke-linejoin:miter;stroke-miterlimit:4;stroke-dasharray:none"
           id="path7803" /></g><g
         id="g7805"
         transform="matrix(1,0,0,-1,0,248)"><path
           d="M 71.98,45.012 L 71.98,51.715"
           style="fill:none;stroke:#000000;stroke-opacity:1;stroke-width:0.343387;stroke-linecap:butt;stroke-linejoin:miter;stroke-miterlimit:4;stroke-dasharray:none"
           id="path7807" /></g><g
         id="g7809"
         transform="matrix(1,0,0,-1,0,248)"><path
           d="M 74.59,45.012 L 74.59,51.715"
           style="fill:none;stroke:#000000;stroke-opacity:1;stroke-width:0.343387;stroke-linecap:butt;stroke-linejoin:miter;stroke-miterlimit:4;stroke-dasharray:none"
           id="path7811" /></g><g
         id="g7813"
         transform="matrix(1,0,0,-1,0,248)"><path
           d="M 57.324,54.004 L 54.066,59.195 L 97.129,59.195 L 94.027,54.059"
           style="fill:none;stroke:#000000;stroke-opacity:1;stroke-width:0.336684;stroke-linecap:butt;stroke-linejoin:miter;stroke-miterlimit:4;stroke-dasharray:none"
           id="path7815" /></g><g
         id="g7817"
         transform="matrix(1,0,0,-1,0,248)"><path
           d="M 56.363,55.48 C 53.563,55.57 49.309,53.07 51.094,51.094 C 53.113,49.051 55.523,48.91 57.27,47.918"
           style="fill:none;stroke:#000000;stroke-opacity:1;stroke-width:0.336684;stroke-linecap:butt;stroke-linejoin:miter;stroke-miterlimit:4;stroke-dasharray:none"
           id="path7819" /></g><g
         id="g7821"
         transform="matrix(1,0,0,-1,0,248)"><path
           d="M 80.172,45.047 L 90.926,45.047 L 90.926,47.012 L 80.172,47.012 L 80.172,45.047 z"
           style="fill:#ffffff;fill-opacity:1;fill-rule:nonzero;stroke:#000000;stroke-opacity:1;stroke-width:0.336684;stroke-linecap:round;stroke-linejoin:miter;stroke-miterlimit:4;stroke-dasharray:none"
           id="path7823" /></g><g
         id="g7825"
         transform="matrix(0.946299,0,0,-1,0,248)"><path
           d="M 95.087,46.027 C 95.087,46.234 94.88,46.402 94.624,46.402 C 94.368,46.402 94.158,46.234 94.158,46.027 C 94.158,45.82 94.368,45.652 94.624,45.652 C 94.88,45.652 95.087,45.82 95.087,46.027 z"
           style="fill:#ffffff;fill-opacity:1;fill-rule:nonzero;stroke:#000000;stroke-opacity:1;stroke-width:0.346106;stroke-linecap:round;stroke-linejoin:miter;stroke-miterlimit:4;stroke-dasharray:none"
           id="path7827" /></g><g
         id="g7829"
         transform="matrix(0.946299,0,0,-1,0,248)"><path
           d="M 63.066,89.063 L 96.977,89.063 L 96.977,116.789 L 63.066,116.789 L 63.066,89.063 z"
           style="fill:#ffffff;fill-opacity:1;fill-rule:nonzero;stroke:#000000;stroke-opacity:1;stroke-width:0.330906;stroke-linecap:butt;stroke-linejoin:miter;stroke-miterlimit:4;stroke-dasharray:none"
           id="path7831" /></g><g
         id="g7833"
         transform="matrix(0.946299,0,0,-1,0,248)"><path
           d="M 67.388,93.629 L 92.779,93.629 L 92.779,112.223 L 67.388,112.223 L 67.388,93.629 z"
           style="fill:#ffffff;fill-opacity:1;fill-rule:nonzero;stroke:#000000;stroke-opacity:1;stroke-width:0.814693;stroke-linecap:butt;stroke-linejoin:miter;stroke-miterlimit:4;stroke-dasharray:none"
           id="path7835" /></g><g
         id="g7837"
         transform="matrix(1,0,0,-1,0,248)"><path
           d="M 66.086,117.152 L 85.363,117.152 L 85.363,121.164 L 66.086,121.164 L 66.086,117.152 z"
           style="fill:#ffffff;fill-opacity:1;fill-rule:nonzero;stroke:#000000;stroke-opacity:1;stroke-width:0.612498;stroke-linecap:butt;stroke-linejoin:miter;stroke-miterlimit:4;stroke-dasharray:none"
           id="path7839" /></g><g
         id="g7841"
         transform="matrix(1,0,0,-1,0,248)"><path
           d="M 57.301,121.469 L 94.148,121.469 L 94.148,133.211 L 57.301,133.211 L 57.301,121.469 z"
           style="fill:#ffffff;fill-opacity:1;fill-rule:nonzero;stroke:#000000;stroke-opacity:1;stroke-width:0.336684;stroke-linecap:butt;stroke-linejoin:miter;stroke-miterlimit:4;stroke-dasharray:none"
           id="path7843" /></g><g
         id="g7845"
         transform="matrix(1,0,0,-1,0,248)"><path
           d="M 60.227,124.012 L 76.02,124.012 L 76.02,130.809 L 60.227,130.809 L 60.227,124.012 z"
           style="fill:#ffffff;fill-opacity:1;fill-rule:nonzero;stroke:#000000;stroke-opacity:1;stroke-width:0.336684;stroke-linecap:butt;stroke-linejoin:miter;stroke-miterlimit:4;stroke-dasharray:none"
           id="path7847" /></g><g
         id="g7849"
         transform="matrix(1,0,0,-1,0,248)"><path
           d="M 61.563,124.109 L 61.563,130.711"
           style="fill:none;stroke:#000000;stroke-opacity:1;stroke-width:0.340722;stroke-linecap:butt;stroke-linejoin:miter;stroke-miterlimit:4;stroke-dasharray:none"
           id="path7851" /></g><g
         id="g7853"
         transform="matrix(1,0,0,-1,0,248)"><path
           d="M 62.863,124.082 L 62.863,130.738"
           style="fill:none;stroke:#000000;stroke-opacity:1;stroke-width:0.342057;stroke-linecap:butt;stroke-linejoin:miter;stroke-miterlimit:4;stroke-dasharray:none"
           id="path7855" /></g><g
         id="g7857"
         transform="matrix(1,0,0,-1,0,248)"><path
           d="M 65.465,124.188 L 65.465,130.633"
           style="fill:none;stroke:#000000;stroke-opacity:1;stroke-width:0.336684;stroke-linecap:butt;stroke-linejoin:miter;stroke-miterlimit:4;stroke-dasharray:none"
           id="path7859" /></g><g
         id="g7861"
         transform="matrix(1,0,0,-1,0,248)"><path
           d="M 64.168,124.082 L 64.168,130.738"
           style="fill:none;stroke:#000000;stroke-opacity:1;stroke-width:0.342057;stroke-linecap:butt;stroke-linejoin:miter;stroke-miterlimit:4;stroke-dasharray:none"
           id="path7863" /></g><g
         id="g7865"
         transform="matrix(1,0,0,-1,0,248)"><path
           d="M 68.07,124.059 L 68.07,130.762"
           style="fill:none;stroke:#000000;stroke-opacity:1;stroke-width:0.343387;stroke-linecap:butt;stroke-linejoin:miter;stroke-miterlimit:4;stroke-dasharray:none"
           id="path7867" /></g><g
         id="g7869"
         transform="matrix(1,0,0,-1,0,248)"><path
           d="M 66.766,124.059 L 66.766,130.762"
           style="fill:none;stroke:#000000;stroke-opacity:1;stroke-width:0.343387;stroke-linecap:butt;stroke-linejoin:miter;stroke-miterlimit:4;stroke-dasharray:none"
           id="path7871" /></g><g
         id="g7873"
         transform="matrix(1,0,0,-1,0,248)"><path
           d="M 70.68,124.059 L 70.68,130.762"
           style="fill:none;stroke:#000000;stroke-opacity:1;stroke-width:0.343387;stroke-linecap:butt;stroke-linejoin:miter;stroke-miterlimit:4;stroke-dasharray:none"
           id="path7875" /></g><g
         id="g7877"
         transform="matrix(1,0,0,-1,0,248)"><path
           d="M 69.375,124.059 L 69.375,130.762"
           style="fill:none;stroke:#000000;stroke-opacity:1;stroke-width:0.343387;stroke-linecap:butt;stroke-linejoin:miter;stroke-miterlimit:4;stroke-dasharray:none"
           id="path7879" /></g><g
         id="g7881"
         transform="matrix(1,0,0,-1,0,248)"><path
           d="M 73.285,124.059 L 73.285,130.762"
           style="fill:none;stroke:#000000;stroke-opacity:1;stroke-width:0.343387;stroke-linecap:butt;stroke-linejoin:miter;stroke-miterlimit:4;stroke-dasharray:none"
           id="path7883" /></g><g
         id="g7885"
         transform="matrix(1,0,0,-1,0,248)"><path
           d="M 71.98,124.059 L 71.98,130.762"
           style="fill:none;stroke:#000000;stroke-opacity:1;stroke-width:0.343387;stroke-linecap:butt;stroke-linejoin:miter;stroke-miterlimit:4;stroke-dasharray:none"
           id="path7887" /></g><g
         id="g7889"
         transform="matrix(1,0,0,-1,0,248)"><path
           d="M 74.59,124.059 L 74.59,130.762"
           style="fill:none;stroke:#000000;stroke-opacity:1;stroke-width:0.343387;stroke-linecap:butt;stroke-linejoin:miter;stroke-miterlimit:4;stroke-dasharray:none"
           id="path7891" /></g><g
         id="g7893"
         transform="matrix(1,0,0,-1,0,248)"><path
           d="M 57.324,133.051 L 54.066,138.242 L 97.129,138.242 L 94.027,133.105"
           style="fill:none;stroke:#000000;stroke-opacity:1;stroke-width:0.336684;stroke-linecap:butt;stroke-linejoin:miter;stroke-miterlimit:4;stroke-dasharray:none"
           id="path7895" /></g><g
         id="g7897"
         transform="matrix(1,0,0,-1,0,248)"><path
           d="M 56.363,134.527 C 53.563,134.613 49.309,132.117 51.094,130.141 C 53.113,128.098 55.523,127.957 57.27,126.965"
           style="fill:none;stroke:#000000;stroke-opacity:1;stroke-width:0.336684;stroke-linecap:butt;stroke-linejoin:miter;stroke-miterlimit:4;stroke-dasharray:none"
           id="path7899" /></g><g
         id="g7901"
         transform="matrix(1,0,0,-1,0,248)"><path
           d="M 80.172,124.09 L 90.926,124.09 L 90.926,126.059 L 80.172,126.059 L 80.172,124.09 z"
           style="fill:#ffffff;fill-opacity:1;fill-rule:nonzero;stroke:#000000;stroke-opacity:1;stroke-width:0.336684;stroke-linecap:round;stroke-linejoin:miter;stroke-miterlimit:4;stroke-dasharray:none"
           id="path7903" /></g><g
         id="g7905"
         transform="matrix(0.946299,0,0,-1,0,248)"><path
           d="M 95.087,125.074 C 95.087,125.281 94.88,125.449 94.624,125.449 C 94.368,125.449 94.158,125.281 94.158,125.074 C 94.158,124.867 94.368,124.699 94.624,124.699 C 94.88,124.699 95.087,124.867 95.087,125.074 z"
           style="fill:#ffffff;fill-opacity:1;fill-rule:nonzero;stroke:#000000;stroke-opacity:1;stroke-width:0.346106;stroke-linecap:round;stroke-linejoin:miter;stroke-miterlimit:4;stroke-dasharray:none"
           id="path7907" /></g><g
         id="g7909"
         transform="matrix(1,0,0,-1,0,248)"><path
           d="M 126.16,0.398 L 126.16,247.602"
           style="fill:none;stroke:#000000;stroke-opacity:1;stroke-width:0.8;stroke-linecap:butt;stroke-linejoin:miter;stroke-miterlimit:4;stroke-dasharray:none"
           id="path7911" /></g><g
         id="g7913"
         transform="matrix(1,0,0,-1,0,248)"><path
           d="M 354.961,0.398 L 354.961,247.602"
           style="fill:none;stroke:#000000;stroke-opacity:1;stroke-width:0.8;stroke-linecap:butt;stroke-linejoin:miter;stroke-miterlimit:4;stroke-dasharray:none"
           id="path7915" /></g><g
         id="g7917"
         transform="matrix(1,0,0,-1,0,248)"><path
           d="M 223.762,17.41 L 261.363,17.41 L 261.363,35.809 L 223.762,35.809 L 223.762,17.41 z"
           style="fill:none;stroke:#000000;stroke-opacity:1;stroke-width:0.32;stroke-linecap:round;stroke-linejoin:round;stroke-miterlimit:4;stroke-dasharray:none"
           id="path7919" /></g><text
         transform="matrix(1,0,0,-1,232.85937,217.95703)"
         id="text7921"><tspan
           style="fill:#000000;fill-opacity:1;fill-rule:nonzero;stroke:none;font-family:Arial;font-variant:normal;font-weight:normal;font-size:9.6;writing-mode:lr;-inkscape-font-specification:Arial"
           x="0 6.3936 12.7872"
           y="0"
           sodipodi:role="line"
           id="tspan7923">SYN</tspan></text>
<g
         id="g7925"
         transform="matrix(1,0,0,-1,0,248)"><path
           d="M 133.449,17.414 L 148.16,17.414 L 148.16,35.801 L 133.449,35.801 L 133.449,17.414 z"
           style="fill:none;stroke:#000000;stroke-opacity:1;stroke-width:0.317613;stroke-linecap:round;stroke-linejoin:round;stroke-miterlimit:4;stroke-dasharray:none"
           id="path7927" /></g><text
         transform="matrix(1,0,0,-1,138.49219,217.94141)"
         id="text7929"><tspan
           style="fill:#000000;fill-opacity:1;fill-rule:nonzero;stroke:none;font-family:Arial;font-variant:normal;font-weight:normal;font-size:9.6;writing-mode:lr;-inkscape-font-specification:Arial"
           x="0"
           y="0"
           id="tspan7931">1</tspan></text>
<g
         id="g7933"
         transform="matrix(1,0,0,-1,0,248)"><path
           d="M 148.363,25.699 L 223.66,25.699"
           style="fill:none;stroke:#000000;stroke-opacity:1;stroke-width:0.8;stroke-linecap:butt;stroke-linejoin:miter;stroke-miterlimit:4;stroke-dasharray:none"
           id="path7935" /></g><g
         id="g7937"
         transform="matrix(1,0,0,-1,0,248)"><path
           d="M 261.363,25.715 L 337.875,25.855"
           style="fill:none;stroke:#000000;stroke-opacity:1;stroke-width:0.8;stroke-linecap:butt;stroke-linejoin:miter;stroke-miterlimit:4;stroke-dasharray:none"
           id="path7939" /></g><path
         d="M 329.328,225.711 L 338.938,222.156 L 329.316,218.641 C 330.855,220.723 330.852,223.578 329.328,225.711 z"
         style="fill:#000000;fill-opacity:1;fill-rule:evenodd;stroke:none"
         id="path7941" /><g
         id="g7943"
         transform="matrix(1,0,0,-1,0,248)"><path
           d="M 133.449,89.941 L 148.16,89.941 L 148.16,108.328 L 133.449,108.328 L 133.449,89.941 z"
           style="fill:none;stroke:#000000;stroke-opacity:1;stroke-width:0.317613;stroke-linecap:round;stroke-linejoin:round;stroke-miterlimit:4;stroke-dasharray:none"
           id="path7945" /></g><text
         transform="matrix(1,0,0,-1,138.49219,145.47656)"
         id="text7947"><tspan
           style="fill:#000000;fill-opacity:1;fill-rule:nonzero;stroke:none;font-family:Arial;font-variant:normal;font-weight:normal;font-size:9.6;writing-mode:lr;-inkscape-font-specification:Arial"
           x="0"
           y="0"
           id="tspan7949">3</tspan></text>
<g
         id="g7951"
         transform="matrix(1,0,0,-1,0,248)"><path
           d="M 148.195,99.133 L 223.492,99.133"
           style="fill:none;stroke:#000000;stroke-opacity:1;stroke-width:0.8;stroke-linecap:butt;stroke-linejoin:miter;stroke-miterlimit:4;stroke-dasharray:none"
           id="path7953" /></g><g
         id="g7955"
         transform="matrix(1,0,0,-1,0,248)"><path
           d="M 223.762,89.934 L 261.363,89.934 L 261.363,108.332 L 223.762,108.332 L 223.762,89.934 z"
           style="fill:none;stroke:#000000;stroke-opacity:1;stroke-width:0.32;stroke-linecap:round;stroke-linejoin:round;stroke-miterlimit:4;stroke-dasharray:none"
           id="path7957" /></g><text
         transform="matrix(1,0,0,-1,232.85937,145.42969)"
         id="text7959"><tspan
           style="fill:#000000;fill-opacity:1;fill-rule:nonzero;stroke:none;font-family:Arial;font-variant:normal;font-weight:normal;font-size:9.6;writing-mode:lr;-inkscape-font-specification:Arial"
           x="0 6.3936 12.7872"
           y="0"
           sodipodi:role="line"
           id="tspan7961">SYN</tspan></text>
<g
         id="g7963"
         transform="matrix(1,0,0,-1,0,248)"><path
           d="M 261.363,99.023 L 337.875,99.164"
           style="fill:none;stroke:#000000;stroke-opacity:1;stroke-width:0.8;stroke-linecap:butt;stroke-linejoin:miter;stroke-miterlimit:4;stroke-dasharray:none"
           id="path7965" /></g><path
         d="M 329.328,152.402 L 338.938,148.848 L 329.316,145.332 C 330.855,147.414 330.852,150.273 329.328,152.402 z"
         style="fill:#000000;fill-opacity:1;fill-rule:evenodd;stroke:none"
         id="path7967" /><g
         id="g7969"
         transform="matrix(1,0,0,-1,0,248)"><path
           d="M 133.449,171.109 L 148.16,171.109 L 148.16,189.496 L 133.449,189.496 L 133.449,171.109 z"
           style="fill:none;stroke:#000000;stroke-opacity:1;stroke-width:0.317613;stroke-linecap:round;stroke-linejoin:round;stroke-miterlimit:4;stroke-dasharray:none"
           id="path7971" /></g><text
         transform="matrix(1,0,0,-1,138.49219,64.25)"
         id="text7973"><tspan
           style="fill:#000000;fill-opacity:1;fill-rule:nonzero;stroke:none;font-family:Arial;font-variant:normal;font-weight:normal;font-size:9.6;writing-mode:lr;-inkscape-font-specification:Arial"
           x="0"
           y="0"
           id="tspan7975">5</tspan></text>
<g
         id="g7977"
         transform="matrix(1,0,0,-1,0,248)"><path
           d="M 148.254,180.301 L 223.555,180.301"
           style="fill:none;stroke:#000000;stroke-opacity:1;stroke-width:0.8;stroke-linecap:butt;stroke-linejoin:miter;stroke-miterlimit:4;stroke-dasharray:none"
           id="path7979" /></g><g
         id="g7981"
         transform="matrix(1,0,0,-1,0,248)"><path
           d="M 223.762,171.102 L 261.363,171.102 L 261.363,189.5 L 223.762,189.5 L 223.762,171.102 z"
           style="fill:none;stroke:#000000;stroke-opacity:1;stroke-width:0.32;stroke-linecap:round;stroke-linejoin:round;stroke-miterlimit:4;stroke-dasharray:none"
           id="path7983" /></g><text
         transform="matrix(1,0,0,-1,232.85937,64.261719)"
         id="text7985"><tspan
           style="fill:#000000;fill-opacity:1;fill-rule:nonzero;stroke:none;font-family:Arial;font-variant:normal;font-weight:normal;font-size:9.6;writing-mode:lr;-inkscape-font-specification:Arial"
           x="0 6.3936 12.7872"
           y="0"
           sodipodi:role="line"
           id="tspan7987">SYN</tspan></text>
<g
         id="g7989"
         transform="matrix(1,0,0,-1,0,248)"><path
           d="M 261.363,180.191 L 337.875,180.332"
           style="fill:none;stroke:#000000;stroke-opacity:1;stroke-width:0.8;stroke-linecap:butt;stroke-linejoin:miter;stroke-miterlimit:4;stroke-dasharray:none"
           id="path7991" /></g><path
         d="M 329.328,71.234 L 338.938,67.68 L 329.316,64.164 C 330.855,66.246 330.852,69.105 329.328,71.234 z"
         style="fill:#000000;fill-opacity:1;fill-rule:evenodd;stroke:none"
         id="path7993" /><g
         id="g7995"
         transform="matrix(1,0,0,-1,0,248)"><path
           d="M 218.953,52.113 L 266.172,52.113 L 266.172,70.527 L 218.953,70.527 L 218.953,52.113 z"
           style="fill:none;stroke:#000000;stroke-opacity:1;stroke-width:0.301153;stroke-linecap:round;stroke-linejoin:round;stroke-miterlimit:4;stroke-dasharray:none"
           id="path7997" /></g><text
         transform="matrix(1,0,0,-1,221.26562,183.24219)"
         id="text7999"><tspan
           style="fill:#000000;fill-opacity:1;fill-rule:nonzero;stroke:none;font-family:Arial;font-variant:normal;font-weight:normal;font-size:9.6;writing-mode:lr;-inkscape-font-specification:Arial"
           x="0 6.3936 12.7872 19.7184 22.3776 28.7712 35.7024"
           y="0"
           sodipodi:role="line"
           id="tspan8001">SYN/ACK</tspan></text>
<g
         id="g8003"
         transform="matrix(1,0,0,-1,0,248)"><path
           d="M 329.754,53.633 L 344.465,53.633 L 344.465,72.02 L 329.754,72.02 L 329.754,53.633 z"
           style="fill:none;stroke:#000000;stroke-opacity:1;stroke-width:0.317613;stroke-linecap:round;stroke-linejoin:round;stroke-miterlimit:4;stroke-dasharray:none"
           id="path8005" /></g><text
         transform="matrix(1,0,0,-1,334.79687,181.72266)"
         id="text8007"><tspan
           style="fill:#000000;fill-opacity:1;fill-rule:nonzero;stroke:none;font-family:Arial;font-variant:normal;font-weight:normal;font-size:9.6;writing-mode:lr;-inkscape-font-specification:Arial"
           x="0"
           y="0"
           id="tspan8009">2</tspan></text>
<g
         id="g8011"
         transform="matrix(1,0,0,-1,0,248)"><path
           d="M 266.16,62.828 L 329.801,62.828"
           style="fill:none;stroke:#000000;stroke-opacity:1;stroke-width:0.8;stroke-linecap:butt;stroke-linejoin:miter;stroke-miterlimit:4;stroke-dasharray:none"
           id="path8013" /></g><g
         id="g8015"
         transform="matrix(1,0,0,-1,0,248)"><path
           d="M 218.832,61.32 L 148.969,61.32"
           style="fill:none;stroke:#000000;stroke-opacity:1;stroke-width:0.8;stroke-linecap:butt;stroke-linejoin:miter;stroke-miterlimit:4;stroke-dasharray:none"
           id="path8017" /></g><path
         d="M 157.523,183.129 L 147.906,186.664 L 157.523,190.203 C 155.988,188.113 155.996,185.258 157.523,183.129 z"
         style="fill:#000000;fill-opacity:1;fill-rule:evenodd;stroke:none"
         id="path8019" /><g
         id="g8021"
         transform="matrix(1,0,0,-1,0,248)"><path
           d="M 218.953,131.039 L 266.172,131.039 L 266.172,149.453 L 218.953,149.453 L 218.953,131.039 z"
           style="fill:none;stroke:#000000;stroke-opacity:1;stroke-width:0.301153;stroke-linecap:round;stroke-linejoin:round;stroke-miterlimit:4;stroke-dasharray:none"
           id="path8023" /></g><text
         transform="matrix(1,0,0,-1,221.26562,104.32031)"
         id="text8025"><tspan
           style="fill:#000000;fill-opacity:1;fill-rule:nonzero;stroke:none;font-family:Arial;font-variant:normal;font-weight:normal;font-size:9.6;writing-mode:lr;-inkscape-font-specification:Arial"
           x="0 6.3936 12.7872 19.7184 22.3776 28.7712 35.7024"
           y="0"
           sodipodi:role="line"
           id="tspan8027">SYN/ACK</tspan></text>
<g
         id="g8029"
         transform="matrix(1,0,0,-1,0,248)"><path
           d="M 329.754,132.559 L 344.465,132.559 L 344.465,150.945 L 329.754,150.945 L 329.754,132.559 z"
           style="fill:none;stroke:#000000;stroke-opacity:1;stroke-width:0.317613;stroke-linecap:round;stroke-linejoin:round;stroke-miterlimit:4;stroke-dasharray:none"
           id="path8031" /></g><text
         transform="matrix(1,0,0,-1,334.79687,102.79688)"
         id="text8033"><tspan
           style="fill:#000000;fill-opacity:1;fill-rule:nonzero;stroke:none;font-family:Arial;font-variant:normal;font-weight:normal;font-size:9.6;writing-mode:lr;-inkscape-font-specification:Arial"
           x="0"
           y="0"
           id="tspan8035">4</tspan></text>
<g
         id="g8037"
         transform="matrix(1,0,0,-1,0,248)"><path
           d="M 266.16,141.75 L 329.801,141.75"
           style="fill:none;stroke:#000000;stroke-opacity:1;stroke-width:0.8;stroke-linecap:butt;stroke-linejoin:miter;stroke-miterlimit:4;stroke-dasharray:none"
           id="path8039" /></g><g
         id="g8041"
         transform="matrix(1,0,0,-1,0,248)"><path
           d="M 218.832,140.246 L 148.969,140.246"
           style="fill:none;stroke:#000000;stroke-opacity:1;stroke-width:0.8;stroke-linecap:butt;stroke-linejoin:miter;stroke-miterlimit:4;stroke-dasharray:none"
           id="path8043" /></g><path
         d="M 157.523,104.207 L 147.906,107.742 L 157.523,111.277 C 155.988,109.191 155.996,106.332 157.523,104.207 z"
         style="fill:#000000;fill-opacity:1;fill-rule:evenodd;stroke:none"
         id="path8045" /><g
         id="g8047"
         transform="matrix(1,0,0,-1,0,248)"><path
           d="M 218.953,209.641 L 266.172,209.641 L 266.172,228.055 L 218.953,228.055 L 218.953,209.641 z"
           style="fill:none;stroke:#000000;stroke-opacity:1;stroke-width:0.301153;stroke-linecap:round;stroke-linejoin:round;stroke-miterlimit:4;stroke-dasharray:none"
           id="path8049" /></g><text
         transform="matrix(1,0,0,-1,221.26562,25.714844)"
         id="text8051"><tspan
           style="fill:#000000;fill-opacity:1;fill-rule:nonzero;stroke:none;font-family:Arial;font-variant:normal;font-weight:normal;font-size:9.6;writing-mode:lr;-inkscape-font-specification:Arial"
           x="0 6.3936 12.7872 19.7184 22.3776 28.7712 35.7024"
           y="0"
           sodipodi:role="line"
           id="tspan8053">SYN/ACK</tspan></text>
<g
         id="g8055"
         transform="matrix(1,0,0,-1,0,248)"><path
           d="M 329.754,211.164 L 344.465,211.164 L 344.465,229.551 L 329.754,229.551 L 329.754,211.164 z"
           style="fill:none;stroke:#000000;stroke-opacity:1;stroke-width:0.317613;stroke-linecap:round;stroke-linejoin:round;stroke-miterlimit:4;stroke-dasharray:none"
           id="path8057" /></g><text
         transform="matrix(1,0,0,-1,334.79687,24.195313)"
         id="text8059"><tspan
           style="fill:#000000;fill-opacity:1;fill-rule:nonzero;stroke:none;font-family:Arial;font-variant:normal;font-weight:normal;font-size:9.6;writing-mode:lr;-inkscape-font-specification:Arial"
           x="0"
           y="0"
           id="tspan8061">6</tspan></text>
<g
         id="g8063"
         transform="matrix(1,0,0,-1,0,248)"><path
           d="M 266.16,220.355 L 329.801,220.355"
           style="fill:none;stroke:#000000;stroke-opacity:1;stroke-width:0.8;stroke-linecap:butt;stroke-linejoin:miter;stroke-miterlimit:4;stroke-dasharray:none"
           id="path8065" /></g><g
         id="g8067"
         transform="matrix(1,0,0,-1,0,248)"><path
           d="M 218.832,218.848 L 148.969,218.848"
           style="fill:none;stroke:#000000;stroke-opacity:1;stroke-width:0.8;stroke-linecap:butt;stroke-linejoin:miter;stroke-miterlimit:4;stroke-dasharray:none"
           id="path8069" /></g><path
         d="M 157.523,25.602 L 147.906,29.137 L 157.523,32.672 C 155.988,30.586 155.996,27.73 157.523,25.602 z"
         style="fill:#000000;fill-opacity:1;fill-rule:evenodd;stroke:none"
         id="path8071" /><g
         id="g8073"
         transform="matrix(1,0,0,-1,0,248)"><path
           d="M 244.563,235.5 C 244.563,236.383 243.664,237.102 242.563,237.102 C 241.457,237.102 240.563,236.383 240.563,235.5 C 240.563,234.617 241.457,233.898 242.563,233.898 C 243.664,233.898 244.563,234.617 244.563,235.5 z"
           style="fill:#000000;fill-opacity:1;fill-rule:nonzero;stroke:#000000;stroke-opacity:1;stroke-width:0.32;stroke-linecap:round;stroke-linejoin:round;stroke-miterlimit:4;stroke-dasharray:none"
           id="path8075" /></g><g
         id="g8077"
         transform="matrix(1,0,0,-1,0,248)"><path
           d="M 244.563,240.699 C 244.563,241.582 243.664,242.301 242.563,242.301 C 241.457,242.301 240.563,241.582 240.563,240.699 C 240.563,239.816 241.457,239.102 242.563,239.102 C 243.664,239.102 244.563,239.816 244.563,240.699 z"
           style="fill:#000000;fill-opacity:1;fill-rule:nonzero;stroke:#000000;stroke-opacity:1;stroke-width:0.32;stroke-linecap:round;stroke-linejoin:round;stroke-miterlimit:4;stroke-dasharray:none"
           id="path8079" /></g><g
         id="g8081"
         transform="matrix(1,0,0,-1,0,248)"><path
           d="M 244.563,245.898 C 244.563,246.785 243.664,247.5 242.563,247.5 C 241.457,247.5 240.563,246.785 240.563,245.898 C 240.563,245.016 241.457,244.301 242.563,244.301 C 243.664,244.301 244.563,245.016 244.563,245.898 z"
           style="fill:#000000;fill-opacity:1;fill-rule:nonzero;stroke:#000000;stroke-opacity:1;stroke-width:0.32;stroke-linecap:round;stroke-linejoin:round;stroke-miterlimit:4;stroke-dasharray:none"
           id="path8083" /></g><text
         transform="matrix(1,0,0,-1,-1.046875,210)"
         id="text8085"><tspan
           style="fill:#000000;fill-opacity:1;fill-rule:nonzero;stroke:none;font-family:Arial;font-variant:normal;font-weight:normal;font-size:9.6;writing-mode:lr;-inkscape-font-specification:Arial"
           x="0 5.3376 10.6752 13.3344 18.672 24.0096 26.6688 32.0064 37.344 40.0032 45.3408"
           y="0"
           sodipodi:role="line"
           id="tspan8087">10.10.10.10</tspan></text>
<text
         transform="matrix(1,0,0,-1,-0.28125,130.95312)"
         id="text8089"><tspan
           style="fill:#000000;fill-opacity:1;fill-rule:nonzero;stroke:none;font-family:Arial;font-variant:normal;font-weight:normal;font-size:9.6;writing-mode:lr;-inkscape-font-specification:Arial"
           x="0 5.3376 10.6752 13.3344 18.672 24.0096 26.6688 32.0064 37.344 40.0032 45.3408"
           y="0"
           sodipodi:role="line"
           id="tspan8091">20.20.20.20</tspan></text>
<text
         transform="matrix(1,0,0,-1,-0.402344,51.910156)"
         id="text8093"><tspan
           style="fill:#000000;fill-opacity:1;fill-rule:nonzero;stroke:none;font-family:Arial;font-variant:normal;font-weight:normal;font-size:9.6;writing-mode:lr;-inkscape-font-specification:Arial"
           x="0 5.3376 10.6752 13.3344 18.672 24.0096 26.6688 32.0064 37.344 40.0032 45.3408"
           y="0"
           sodipodi:role="line"
           id="tspan8095">30.30.30.30</tspan></text>
</g></g></svg>